<svg width="16" height="16" viewBox="0 0 16 16" fill="none" xmlns="http://www.w3.org/2000/svg">
<path fill-rule="evenodd" clip-rule="evenodd" d="M13.4195 4.96833C14.3142 4.96833 15.04 6.08769 15.04 6.88257C15.04 8.26497 14.3078 12.8115 13.1411 13.7901C12.8166 14.0627 12.2131 14.5447 11.1155 14.5447H10.3628C9.08732 14.5447 8.13948 14.2067 7.35484 13.9271C7.18524 13.8663 7.02204 13.8087 6.86588 13.7575C6.711 13.7063 6.52476 13.6423 6.33212 13.5757H6.33148C6.26428 13.5527 6.16124 13.5104 6.05756 13.4688C5.96248 13.4292 5.86645 13.3918 5.76956 13.3568V5.87841C5.99292 5.63841 6.35388 5.23073 6.56764 4.96833L6.59836 4.93121C7.0246 4.41025 7.38556 3.96929 7.69404 3.68513C7.96924 3.43169 8.09084 3.11937 8.14204 2.98049C8.2054 2.80138 8.25966 2.61917 8.3046 2.43457L8.35516 2.23617C8.43004 1.93985 8.49916 1.66337 8.59836 1.39009C8.7206 1.05537 8.84668 0.851215 8.9574 0.742415C9.02972 0.672015 9.08668 0.640015 9.22812 0.640015C9.9718 0.640015 10.4064 0.825615 10.6649 1.07009C10.9305 1.32161 11.1974 1.81249 11.1974 2.76481C11.1974 3.17121 11.1046 3.51105 10.9792 3.81185L10.6649 4.96833H13.4195ZM1.59996 4.73601C1.43022 4.73601 1.26744 4.80344 1.14741 4.92347C1.02739 5.04349 0.959961 5.20628 0.959961 5.37601V13.8087C0.959961 13.9784 1.02739 14.1412 1.14741 14.2612C1.26744 14.3812 1.43022 14.4487 1.59996 14.4487H4.07804C4.24778 14.4487 4.41057 14.3812 4.53059 14.2612C4.65061 14.1412 4.71804 13.9784 4.71804 13.8087V5.37601C4.71804 5.20628 4.65061 5.04349 4.53059 4.92347C4.41057 4.80344 4.24778 4.73601 4.07804 4.73601H1.59996Z" fill="#B7BDBF"/>
</svg>
