<svg width="16" height="16" viewBox="0 0 16 16" fill="none" xmlns="http://www.w3.org/2000/svg">
<path fill-rule="evenodd" clip-rule="evenodd" d="M13.4195 11.0317C14.3142 11.0317 15.04 9.91231 15.04 9.11743C15.04 7.73503 14.3078 3.18847 13.1411 2.2099C12.8166 1.93727 12.2131 1.45535 11.1155 1.45535H10.3628C9.08732 1.45535 8.13948 1.79327 7.35484 2.07295C7.18524 2.13375 7.02204 2.19135 6.86588 2.24255C6.711 2.29375 6.52476 2.35775 6.33212 2.42431H6.33148C6.26428 2.44735 6.16124 2.48959 6.05756 2.53119C5.96248 2.57085 5.86645 2.60819 5.76956 2.64318V10.1216C5.99292 10.3616 6.35388 10.7693 6.56764 11.0317L6.59836 11.0688C7.0246 11.5897 7.38556 12.0307 7.69404 12.3149C7.96924 12.5683 8.09084 12.8806 8.14204 13.0195C8.2054 13.1986 8.25966 13.3808 8.3046 13.5654L8.35516 13.7638C8.43004 14.0601 8.49916 14.3366 8.59836 14.6099C8.7206 14.9446 8.84668 15.1488 8.9574 15.2576C9.02972 15.328 9.08668 15.36 9.22812 15.36C9.9718 15.36 10.4064 15.1744 10.6649 14.9299C10.9305 14.6784 11.1974 14.1875 11.1974 13.2352C11.1974 12.8288 11.1046 12.4889 10.9792 12.1881L10.6649 11.0317H13.4195ZM1.59996 11.264C1.43022 11.264 1.26744 11.1966 1.14741 11.0765C1.02739 10.9565 0.959961 10.7937 0.959961 10.624V2.19135C0.959961 2.02161 1.02739 1.85882 1.14741 1.7388C1.26744 1.61877 1.43022 1.55135 1.59996 1.55135H4.07804C4.24778 1.55135 4.41057 1.61877 4.53059 1.7388C4.65061 1.85882 4.71804 2.02161 4.71804 2.19135V10.624C4.71804 10.7937 4.65061 10.9565 4.53059 11.0765C4.41057 11.1966 4.24778 11.264 4.07804 11.264H1.59996Z" fill="#B7BDBF"/>
</svg>
