<svg width="125" height="29" viewBox="0 0 125 29" fill="none" xmlns="http://www.w3.org/2000/svg">
<path d="M82.5721 29L61.9591 0H68.8301L89.4432 29H82.5721Z" fill="#1A1818"/>
<path d="M67.7307 29L88.3438 0H81.4728L60.8597 29H67.7307Z" fill="#1A1818"/>
<path fill-rule="evenodd" clip-rule="evenodd" d="M0 0H19.5728V5.4717H10.6837L20.033 18.496L32.3266 0H68.0056L72.403 5.4717H35.2808L20.2072 28.1502L0 0ZM57.0119 17.2358H38.4374L42.8348 11.7642H57.0119V17.2358ZM42.8348 23.5283H71.3037L67.4559 29H38.4374L42.8348 23.5283Z" fill="#1A1818"/>
<path fill-rule="evenodd" clip-rule="evenodd" d="M125 29H105.384V23.5283H114.351L104.922 10.3174L92.5739 29H84.496V23.5283H89.6105L104.747 0.625998L125 29Z" fill="#1A1818"/>
</svg>
