<svg width="23" height="23" viewBox="0 0 23 23" fill="none" xmlns="http://www.w3.org/2000/svg">
<path d="M10.9998 1.42619L3.43846 2.93846L1.92619 10.4998C1.90197 10.6209 1.90802 10.7461 1.9438 10.8642C1.97958 10.9824 2.04398 11.0899 2.13129 11.1772L11.9237 20.9697C11.9934 21.0393 12.0761 21.0946 12.1671 21.1323C12.2581 21.17 12.3556 21.1894 12.4541 21.1894C12.5526 21.1894 12.6501 21.17 12.7411 21.1323C12.8321 21.0946 12.9148 21.0393 12.9844 20.9697L21.4697 12.4844C21.5393 12.4148 21.5946 12.3321 21.6323 12.2411C21.67 12.1501 21.6894 12.0526 21.6894 11.9541C21.6894 11.8556 21.67 11.7581 21.6323 11.6671C21.5946 11.5761 21.5393 11.4934 21.4697 11.4237L11.6772 1.63129C11.5899 1.54398 11.4824 1.47958 11.3642 1.4438C11.2461 1.40802 11.1209 1.40197 10.9998 1.42619V1.42619Z" stroke="#1A1818" stroke-width="2" stroke-linecap="round" stroke-linejoin="round"/>
</svg>
